<?xml version="1.0" encoding="UTF-8"?>
<!DOCTYPE svg PUBLIC "-//W3C//DTD SVG 1.0//EN"
	"http://www.w3.org/TR/2001/REC-SVG-20010904/DTD/svg10.dtd">
<svg xmlns="http://www.w3.org/2000/svg" version="1.0" width="799.99994" height="1313.15" id="s1" xml:space="preserve">
<g transform="matrix(1.25,0,0,-1.25,282.23873,778.4986)" id="g1">
<g id="g2">
<path d="M-116.44281,-214.86294L-225.79099,-379.94669L53.675414,-427.72112L178.18767,-398.04502L153.57637,-343.01458L308.50777,-368.33859L414.20898,-341.56641L344.72717,-187.34772L301.98721,-186.63501L299.11362,-147.54201L307.79506,-141.02904C307.79506,-141.02904 334.59757,-114.25686 357.01766,-81.646504L314.30803,390.3658L309.24323,432.36271C309.24323,432.36271 317.92466,448.30016 332.40636,462.03882C332.40636,462.03882 345.43988,470.00754 340.37508,486.65012C335.31028,503.33061 319.37283,516.35655 319.37283,516.35655C319.37283,516.35655 315.02074,522.8771 305.63418,514.16534C296.21728,505.49149 286.79281,506.2042 286.79281,506.2042C286.79281,506.2042 254.95582,595.26284 126.06115,618.41839C-2.8031999,641.58152-111.37801,569.19578-146.86195,488.10587C-146.86195,488.10587-158.43973,467.10362-158.43973,417.88102C-158.43973,368.65842-147.60499,281.76066-147.60499,281.76066L-106.31321,-112.05807L-83.862786,-136.67695L-83.157657,-142.47721C-83.157657,-142.47721-104.86504,-159.11979-96.896313,-213.41477L-116.44281,-214.86294z" id="p1" style="fill:#000;fill-opacity:1;fill-rule:nonzero;stroke:none"/>
<path d="M-187.4107,-342.27912L-138.89323,-348.79209C-138.89323,-348.79209-125.8597,-295.24773-104.86504,-267.7325C-83.862786,-240.21728-61.442695,-246.73025-47.673711,-291.60077C-33.927473,-336.5016-34.640185,-369.08163-34.640185,-369.08163L40.64947,-382.82028L48.610611,-414.69518L-206.9572,-370.5298L-187.4107,-342.27912z" id="p2" style="fill:#e0e1e6;fill-opacity:1;fill-rule:nonzero;stroke:none"/>
<path d="M-183.05103,-335.75856L-108.50442,-223.56712L5.1655239,-228.63193L38.481006,-376.30731L-28.127212,-363.27379C-28.127212,-363.27379-2.06016,-310.44213-27.414501,-248.89114L-85.318538,-243.82633C-85.318538,-243.82633-131.66755,-250.34689-143.24532,-343.72729L-183.05103,-335.75856z" id="p3" style="fill:#e0e1e6;fill-opacity:1;fill-rule:nonzero;stroke:none"/>
<path d="M-63.603576,-251.79506C-63.603576,-251.79506-35.383224,-276.40636-29.575382,-352.43905C-29.575382,-352.43905-12.189765,-311.14726-30.318422,-253.25081L-63.603576,-251.79506z" id="p4" style="fill:#e0e1e6;fill-opacity:1;fill-rule:nonzero;stroke:none"/>
<path d="M10.965784,-230.08768L54.388126,-413.23943L161.54509,-388.62813L89.872071,-232.96127L62.356849,-231.53585L91.320241,-295.95286L60.195968,-298.85678L31.968034,-230.08768L10.965784,-230.08768z" id="p5" style="fill:#fff;fill-opacity:1;fill-rule:nonzero;stroke:none"/>
<path d="M38.481006,-230.80039L56.579335,-230.80039L83.351517,-291.60077L63.805019,-293.79197L38.481006,-230.80039z" id="p6" style="fill:#bdc0c9;fill-opacity:1;fill-rule:nonzero;stroke:none"/>
<path d="M-83.862786,-159.86283C-83.862786,-159.86283-83.862786,-204.02062-67.220209,-217.76686L-89.670629,-217.05415C-89.670629,-217.05415-92.57455,-172.15331-83.862786,-159.86283z" id="p7" style="fill:#e0e1e6;fill-opacity:1;fill-rule:nonzero;stroke:none"/>
<path d="M-76.637102,-114.25686C-76.637102,-114.25686-82.444945,-201.12429-52.025802,-217.76686L-14.380974,-220.67078C-14.380974,-220.67078 15.295129,-219.21503 9.5176146,-117.12287L-76.637102,-114.25686z" id="p8" style="fill:#e0e1e6;fill-opacity:1;fill-rule:nonzero;stroke:none"/>
<path d="M16.030587,-117.86591L47.162442,-118.57862C47.162442,-118.57862 51.514533,-211.24631 20.39026,-222.11895L-4.9640812,-219.92774C-4.9640812,-219.92774 20.39026,-212.70206 16.030587,-117.86591z" id="p9" style="fill:#fff;fill-opacity:1;fill-rule:nonzero;stroke:none"/>
<path d="M52.227244,-151.8941C52.227244,-151.8941 56.579335,-194.60373 34.128916,-222.11895L75.390376,-223.56712C75.390376,-223.56712 70.325573,-171.4406 91.320241,-149.70289L52.227244,-151.8941z" id="p10" style="fill:#e0e1e6;fill-opacity:1;fill-rule:nonzero;stroke:none"/>
<path d="M81.903348,-225.73559L97.840795,-225.73559L120.99634,-274.95819L120.99634,-188.80347C120.99634,-188.80347 121.73938,-159.86283 108.70586,-150.44593C95.672332,-141.02904 77.581585,-169.24939 81.903348,-225.73559z" id="p11" style="fill:#fff;fill-opacity:1;fill-rule:nonzero;stroke:none"/>
<path d="M129.70811,-176.5054L130.41324,-290.88805L260.73334,-306.08246C260.73334,-306.08246 249.86069,-287.279 252.0519,-161.28825C252.0519,-161.28825 176.02679,-179.40932 129.70811,-176.5054z" id="p12" style="fill:#e0e1e6;fill-opacity:1;fill-rule:nonzero;stroke:none"/>
<path d="M259.27758,-159.11979L288.96127,-151.15864C288.96127,-151.15864 294.76153,-262.6677 284.63193,-297.40861C284.63193,-297.40861 273.76686,-316.21207 265.08543,-295.24773C256.38125,-274.24548 256.38125,-168.54426 259.27758,-159.11979z" id="p13" style="fill:#fff;fill-opacity:1;fill-rule:nonzero;stroke:none"/>
<path d="M299.82633,-197.50765L299.82633,-222.83167L317.21195,-264.82858L334.59757,-262.6677L308.50777,-196.76461L299.82633,-197.50765z" id="p14" style="fill:#bdc0c9;fill-opacity:1;fill-rule:nonzero;stroke:none"/>
<path d="M315.76378,-196.76461L343.98413,-268.43763L315.02074,-271.34156L299.82633,-237.31336C299.82633,-237.31336 300.53904,-280.02299 294.76153,-297.40861L308.50777,-356.76081L399.72729,-334.34072L336.75845,-195.31644L315.76378,-196.76461z" id="p15" style="fill:#ebeeee;fill-opacity:1;fill-rule:nonzero;stroke:none"/>
<path d="M132.5817,-299.56949L260.02062,-313.33847C260.02062,-313.33847 285.34464,-319.85903 290.40944,-306.8255L301.28208,-356.0481L147.79885,-331.4368L132.5817,-299.56949z" id="p16" style="fill:#fff;fill-opacity:1;fill-rule:nonzero;stroke:none"/>
<path d="M54.388126,-124.37888L54.388126,-142.47721L89.15936,-141.02904C89.15936,-141.02904 119.54817,-135.2212 127.5169,-164.92763C127.5169,-164.92763 181.83463,-167.80122 301.98721,-138.12512L341.08779,-86.741635C341.08779,-86.741635 191.96424,-122.93071 54.388126,-124.37888z" id="p17" style="fill:#e0e1e6;fill-opacity:1;fill-rule:nonzero;stroke:none"/>
<path d="M58.740216,-44.001677L55.131165,-117.12287C55.131165,-117.12287 136.22108,-118.57862 187.60456,-109.16173L178.93071,-32.423902C178.93071,-32.423902 60.901098,-41.840796 58.740216,-44.001677z" id="p18" style="fill:#fff;fill-opacity:1;fill-rule:nonzero;stroke:none"/>
<path d="M183.2828,-31.71119L191.25152,-108.44901C191.25152,-108.44901 284.63193,-98.319409 347.60076,-80.933792L341.82325,-12.869822C341.82325,-12.869822 203.54201,-30.968151 183.2828,-31.71119z" id="p19" style="fill:#fff;fill-opacity:1;fill-rule:nonzero;stroke:none"/>
<path d="M16.030587,-110.6099L47.162442,-111.35294L53.675414,82.67146L55.131165,86.318422L21.808101,87.736263L16.030587,-110.6099z" id="p20" style="fill:#fff;fill-opacity:1;fill-rule:nonzero;stroke:none"/>
<path d="M-9.316172,-109.16173L10.230326,-110.6099L16.743298,88.479303L42.097639,126.12413L41.354599,244.11583C41.354599,244.11583 49.323323,351.2728-34.640185,346.95104C-118.63402,342.59136-105.60808,252.08456-105.60808,247.76279C-105.60808,243.40312-105.60808,121.76446-105.60808,121.76446L-66.507497,89.192015L-74.476221,-106.99326L-56.347564,-107.7363L-48.416751,101.51283L-70.836842,125.41142L-71.5723,226.0175C-71.5723,226.0175-86.053996,258.59753-61.442695,286.11275C-36.831394,313.62797-2.06016,303.49837 9.5176146,267.30929C21.095389,231.08231-2.06016,210.8231-2.06016,210.8231L-9.316172,-109.16173z" id="p21" style="fill:#e0e1e6;fill-opacity:1;fill-rule:nonzero;stroke:none"/>
<path d="M-65.77204,211.53581L-65.77204,129.02047L-7.8680024,126.82926L-6.4122508,204.31012C-6.4122508,204.31012-36.831394,175.34673-65.77204,211.53581z" id="p22" style="fill:#454b97;fill-opacity:1;fill-rule:nonzero;stroke:none"/>
<path d="M-61.442695,122.5075L-44.76979,105.12188L-7.8680024,105.86492L-7.8680024,121.76446L-61.442695,122.5075z" id="p23" style="fill:#454b97;fill-opacity:1;fill-rule:nonzero;stroke:none"/>
<path d="M-41.896197,100.05708L-8.5807141,100.76979L-13.645517,-109.16173L-50.577632,-107.7363L-41.896197,100.05708z" id="p24" style="fill:#454b97;fill-opacity:1;fill-rule:nonzero;stroke:none"/>
<path d="M-93.287262,-109.16173L-83.862786,-109.16173L-81.701905,-49.809519L-100.54327,-49.809519L-93.287262,-109.16173z" id="p25" style="fill:#fff;fill-opacity:1;fill-rule:nonzero;stroke:none"/>
<path d="M-101.99144,-45.449846L-82.444945,-46.192886L-74.476221,84.86267L-111.37801,117.44269L-113.56922,264.40537C-113.56922,264.40537-117.89856,299.88932-96.896313,323.75758C-96.896313,323.75758-130.92451,316.53189-139.63627,309.27588L-101.99144,-45.449846z" id="p26" style="fill:#fff;fill-opacity:1;fill-rule:nonzero;stroke:none"/>
<path d="M-71.5723,248.11157C-71.5723,275.51306-54.072952,297.69811-32.479303,297.69811C-10.885654,297.69811 6.6136934,275.51306 6.6136934,248.11157C6.6136934,220.71766-10.885654,198.50228-32.479303,198.50228C-54.072952,198.50228-71.5723,220.71766-71.5723,248.11157z" id="p27" style="fill:#7a828d;fill-opacity:1;fill-rule:nonzero;stroke:none"/>
<path d="M47.162442,126.82926L82.646388,126.12413L59.483256,92.088354L23.99931,93.544105L47.162442,126.82926z" id="p28" style="fill:#fff;fill-opacity:1;fill-rule:nonzero;stroke:none"/>
<path d="M48.610611,131.18893L82.646388,130.47622L82.646388,273.82226C82.646388,273.82226 83.351517,326.6615 45.00156,341.85591L2.2616027,346.208C2.2616027,346.208 37.745548,331.01359 44.258521,281.76066L48.610611,131.18893z" id="p29" style="fill:#fff;fill-opacity:1;fill-rule:nonzero;stroke:none"/>
<path d="M22.551141,352.01584C22.551141,352.01584 105.80194,369.37113 137.66925,369.37113L178.93071,-28.807269L58.035087,-38.936874L61.644138,81.958749L89.872071,123.95567L89.872071,273.82226C89.872071,273.82226 94.936874,352.01584 22.551141,352.01584z" id="p30" style="fill:#fff;fill-opacity:1;fill-rule:nonzero;stroke:none"/>
<path d="M141.28588,371.56234L159.38421,202.14924C159.38421,202.14924 247.69981,216.63094 320.82858,216.63094L304.17842,382.39707C304.17842,382.39707 210.76769,380.9489 141.28588,371.56234z" id="p31" style="fill:#fff;fill-opacity:1;fill-rule:nonzero;stroke:none"/>
<path d="M159.38421,197.79715L223.80122,206.471L247.69981,-20.125834L182.53976,-27.3591L159.38421,197.79715z" id="p32" style="fill:#fff;fill-opacity:1;fill-rule:nonzero;stroke:none"/>
<path d="M227.4406,205.76587C227.4406,205.76587 275.21503,211.53581 297.66545,210.8231L319.37283,-12.869822L249.86069,-20.125834L227.4406,205.76587z" id="p33" style="fill:#fff;fill-opacity:1;fill-rule:nonzero;stroke:none"/>
<path d="M301.28208,210.11797L321.53371,210.11797L341.08779,-9.2607709L323.72492,-11.45198L301.28208,210.11797z" id="p34" style="fill:#fff;fill-opacity:1;fill-rule:nonzero;stroke:none"/>
<path d="M302.73025,388.91763C302.73025,388.91763 144.90252,388.20491 3.7097722,353.46401C3.7097722,353.46401-50.577632,367.91538-89.670629,332.46176C-89.670629,332.46176-133.11572,321.5967-139.63627,316.53189L-143.24532,347.65617C-143.24532,347.65617-126.60274,355.62489-96.896313,362.14544L-100.54327,450.46104C-100.54327,450.46104-128.76363,443.23536-143.95803,437.42752C-143.95803,437.42752-143.24532,491.71492-91.83151,540.23239C-91.83151,540.23239-72.285012,548.90625-52.738513,554.00138C-52.738513,554.00138-35.383224,581.5166-27.414501,583.67748C-27.414501,583.67748-36.831394,567.74761-36.095936,559.06618L53.675414,580.06843L45.714272,603.93669L54.388126,605.39244C54.388126,605.39244 66.70894,595.96797 76.838545,584.39019C76.838545,584.39019 143.44676,595.26284 171.6747,593.80708C171.6747,593.80708 192.66937,588.00682 199.92538,582.94202C199.92538,582.94202 108.70586,574.26059 89.15936,567.0349C89.15936,567.0349 129.70811,523.58223 147.79885,458.42977C147.79885,458.42977 261.44605,472.16842 289.69673,468.55937C289.69673,468.55937 303.44297,415.72014 302.73025,388.91763z" id="p35" style="fill:#bac1d1;fill-opacity:1;fill-rule:nonzero;stroke:none"/>
<path d="M-78.092854,457.71705C-78.092854,457.71705-80.989193,394.71789-73.028052,368.65842C-73.028052,368.65842 14.582417,388.20491 39.936758,392.55701C39.936758,392.55701 26.903232,461.33369 26.903232,477.97626C26.903232,477.97626-37.544106,470.75058-78.092854,457.71705z" id="p36" style="fill:#000;fill-opacity:1;fill-rule:nonzero;stroke:none"/>
<path d="M-73.028052,451.90921C-73.028052,451.90921-73.028052,392.55701-68.668379,377.33227C-68.668379,377.33227 13.134248,396.17364 34.128916,399.07756C34.128916,399.07756 24.712022,430.91454 21.095389,471.45571C21.095389,471.45571-52.025802,458.42977-73.028052,451.90921z" id="p37" style="fill:#454b97;fill-opacity:1;fill-rule:nonzero;stroke:none"/>
<path d="M-143.95803,429.45879C-143.95803,429.45879-128.76363,438.14023-106.31321,443.23536C-106.31321,443.23536-106.31321,399.78269-102.70415,367.91538C-102.70415,367.91538-133.11572,359.24152-142.50986,354.17672C-142.50986,354.17672-146.14924,405.59053-143.95803,429.45879z" id="p38" style="fill:#454b97;fill-opacity:1;fill-rule:nonzero;stroke:none"/>
<path d="M58.740216,489.55404C58.740216,489.55404 80.455178,442.49232 82.646388,401.23844C82.646388,401.23844 124.64331,407.75141 137.66925,409.91229C137.66925,409.91229 123.90027,472.91146 110.86674,498.97093C110.86674,498.97093 69.612861,496.07459 58.740216,489.55404z" id="p39" style="fill:#000;fill-opacity:1;fill-rule:nonzero;stroke:none"/>
<path d="M66.70894,487.39316L80.455178,448.30016C80.455178,448.30016 100.73713,453.36496 118.83546,455.52584C118.83546,455.52584 114.48337,472.91146 107.25769,492.45796C107.25769,492.45796 88.41632,493.17067 66.70894,487.39316z" id="p40" style="fill:#94c6eb;fill-opacity:1;fill-rule:nonzero;stroke:none"/>
<path d="M80.455178,443.94807L88.41632,408.46412C88.41632,408.46412 115.21883,414.9771 130.41324,414.27197C130.41324,414.27197 126.80419,436.7148 120.99634,449.74833C120.99634,449.74833 102.19289,449.74833 80.455178,443.94807z" id="p41" style="fill:#94c6eb;fill-opacity:1;fill-rule:nonzero;stroke:none"/>
<path d="M207.8941,409.91229C207.8941,409.91229 237.5702,407.00837 259.27758,412.1035C281.02287,417.16831 283.18376,423.68886 286.08768,433.07543C288.96127,442.49232 283.18376,462.78186 262.89422,459.87794C262.89422,459.87794 226.70514,456.26888 214.41466,455.52584C202.09384,454.81313 188.43859,446.84441 189.79577,429.45879C191.25152,410.65533 207.8941,409.91229 207.8941,409.91229z" id="p42" style="fill:#000;fill-opacity:1;fill-rule:nonzero;stroke:none"/>
<path d="M254.22036,452.62192C254.22036,452.62192 242.63501,430.91454 257.82941,419.32919C257.82941,419.32919 233.21811,412.1035 208.60681,415.72014C208.60681,415.72014 189.79577,420.0419 197.73417,441.04415C197.73417,441.04415 199.92538,449.01287 218.73642,450.46104C237.5702,451.90921 239.02596,449.74833 254.22036,452.62192z" id="p43" style="fill:#7a828d;fill-opacity:1;fill-rule:nonzero;stroke:none"/>
<path d="M255.66853,438.52691C255.66853,447.49646 261.17309,454.81313 267.98935,454.81313C274.76769,454.81313 280.27983,447.49646 280.27983,438.52691C280.27983,429.51945 274.76769,422.23311 267.98935,422.23311C261.17309,422.23311 255.66853,429.51945 255.66853,438.52691z" id="p44" style="fill:#de192b;fill-opacity:1;fill-rule:nonzero;stroke:none"/>
<path d="M289.69673,499.68364C289.69673,499.68364 305.63418,456.97401 306.34689,443.94807C306.34689,443.94807 319.37283,467.10362 327.34155,470.00754C327.34155,470.00754 307.79506,485.20195 308.50777,506.2042C308.50777,506.2042 297.66545,496.81005 289.69673,499.68364z" id="p45" style="fill:#7a828d;fill-opacity:1;fill-rule:nonzero;stroke:none"/>
<path d="M315.76378,509.84358C314.1943,511.50404 310.69898,489.55404 333.1494,474.35963C333.1494,474.35963 338.2142,485.94499 315.76378,509.84358z" id="p46" style="fill:#576370;fill-opacity:1;fill-rule:nonzero;stroke:none"/>
<path d="M97.840795,564.84369C97.840795,564.84369 107.96282,567.0349 110.86674,567.0349C110.86674,567.0349 140.54284,526.48615 160.83238,470.00754C160.83238,470.00754 244.79589,479.42443 286.79281,478.68898L287.53585,473.62417C287.53585,473.62417 176.02679,466.39849 152.15853,462.78186C152.15853,462.78186 133.31716,522.13406 97.840795,564.84369z" id="p47" style="fill:#3b3e67;fill-opacity:1;fill-rule:nonzero;stroke:none"/>
<path d="M115.21883,568.45274C115.21883,568.45274 149.25461,514.90838 164.44901,472.91146C164.44901,472.91146 275.21503,483.04107 286.79281,480.88019C286.79281,480.88019 276.6632,533.71184 206.44593,579.32539C206.44593,579.32539 132.5817,572.09971 115.21883,568.45274z" id="p48" style="fill:#454b97;fill-opacity:1;fill-rule:nonzero;stroke:none"/>
<path d="M155.17618,554.85815C165.27546,573.60853 194.8075,577.36922 221.193,563.18323C247.58608,549.02756 260.82432,522.33878 250.72504,503.56565C240.64851,484.78494 211.09372,481.05457 184.70822,495.21024C158.34547,509.36591 145.10723,536.08502 155.17618,554.85815z" id="p49" style="fill:#000;fill-opacity:1;fill-rule:nonzero;stroke:none"/>
<path d="M217.28067,520.73897C217.28067,523.52916 220.54094,525.7507 224.53668,525.7507C228.54,525.7507 231.76994,523.52916 231.76994,520.73897C231.76994,517.98669 228.54,515.73482 224.53668,515.73482C220.54094,515.73482 217.28067,517.98669 217.28067,520.73897z" id="p50" style="fill:#ebeeee;fill-opacity:1;fill-rule:nonzero;stroke:none"/>
<path d="M178.96104,558.97519C181.15225,565.91276 192.22961,568.60438 203.74673,564.96501C215.27143,561.34837 222.82314,552.78825 220.63193,545.85827C218.44072,538.92828 207.36336,536.2594 195.83866,539.87604C184.32154,543.51542 176.76983,552.07554 178.96104,558.97519z" id="p51" style="fill:#ebeeee;fill-opacity:1;fill-rule:nonzero;stroke:none"/>
<path d="M-47.673711,574.26059C-47.673711,574.26059-54.929723,563.38794-55.642435,558.33072C-55.642435,558.33072-74.476221,556.16226-79.541024,552.55321C-79.541024,552.55321-54.186683,571.35667-47.673711,574.26059z" id="p52" style="fill:#454b97;fill-opacity:1;fill-rule:nonzero;stroke:none"/>
<path d="M-18.710319,588.00682C-18.710319,588.00682-26.671461,572.09971-28.127212,567.0349C-28.127212,567.0349 28.351401,583.67748 47.162442,584.39019L39.193718,603.22398C39.193718,603.22398 7.3567333,602.48852-18.710319,588.00682z" id="p53" style="fill:#454b97;fill-opacity:1;fill-rule:nonzero;stroke:none"/>
<path d="M63.805019,605.39244L79.742466,590.19803C79.742466,590.19803 139.83771,598.87189 155.02454,596.71101C155.02454,596.71101 101.44985,613.35358 63.805019,605.39244z" id="p54" style="fill:#454b97;fill-opacity:1;fill-rule:nonzero;stroke:none"/>
</g>
</g>
</svg>